<svg width="1440" height="764" viewBox="0 0 1440 764" fill="none" xmlns="http://www.w3.org/2000/svg">
<path d="M3.789 485C-17.9802 418.5 54.8422 343.737 201.945 320C309.113 305.185 295.72 320 380.564 256C465.408 192 705.428 -17.5 716.592 128C727.756 273.5 961.077 574 1052.06 288C1143.05 2 1440 2 1440 2" stroke="url(#paint0_linear_29_4)" stroke-width="3"/>
<path d="M3.789 763C-17.9802 696.5 54.8422 621.737 201.945 598C309.113 583.185 295.72 598 380.564 534C465.408 470 705.428 260.5 716.592 406C727.756 551.5 961.077 852 1052.06 566C1143.05 280 1440 280 1440 280" stroke="url(#paint1_linear_29_4)" stroke-width="3"/>
<path d="M3.789 498.238C-17.9802 431.738 54.8422 356.976 201.945 333.238C309.113 318.423 295.72 333.238 380.564 269.238C465.408 205.238 705.428 -4.2619 716.592 141.238C727.756 286.738 961.077 587.238 1052.06 301.238C1143.05 15.2381 1440 15.2381 1440 15.2381" stroke="url(#paint2_linear_29_4)" stroke-width="3"/>
<path d="M3.789 511.476C-17.9802 444.976 54.8422 370.214 201.945 346.476C309.113 331.661 295.72 346.476 380.564 282.476C465.408 218.476 705.428 8.9762 716.592 154.476C727.756 299.976 961.077 600.476 1052.06 314.476C1143.05 28.4762 1440 28.4762 1440 28.4762" stroke="url(#paint3_linear_29_4)" stroke-width="3"/>
<path d="M3.789 524.714C-17.9802 458.214 54.8422 383.452 201.945 359.714C309.113 344.899 295.72 359.714 380.564 295.714C465.408 231.714 705.428 22.2143 716.592 167.714C727.756 313.214 961.077 613.714 1052.06 327.714C1143.05 41.7143 1440 41.7143 1440 41.7143" stroke="url(#paint4_linear_29_4)" stroke-width="3"/>
<path d="M3.789 537.952C-17.9802 471.452 54.8422 396.69 201.945 372.952C309.113 358.137 295.72 372.952 380.564 308.952C465.408 244.952 705.428 35.4524 716.592 180.952C727.756 326.452 961.077 626.952 1052.06 340.952C1143.05 54.9524 1440 54.9524 1440 54.9524" stroke="url(#paint5_linear_29_4)" stroke-width="3"/>
<path d="M3.789 551.19C-17.9802 484.69 54.8422 409.928 201.945 386.19C309.113 371.376 295.72 386.19 380.564 322.19C465.408 258.19 705.428 48.6905 716.592 194.19C727.756 339.69 961.077 640.19 1052.06 354.19C1143.05 68.1905 1440 68.1905 1440 68.1905" stroke="url(#paint6_linear_29_4)" stroke-width="3"/>
<path d="M3.789 564.429C-17.9802 497.929 54.8422 423.166 201.945 399.429C309.113 384.614 295.72 399.429 380.564 335.429C465.408 271.429 705.428 61.9286 716.592 207.429C727.756 352.929 961.077 653.429 1052.06 367.429C1143.05 81.4286 1440 81.4286 1440 81.4286" stroke="url(#paint7_linear_29_4)" stroke-width="3"/>
<path d="M3.789 577.667C-17.9802 511.167 54.8422 436.404 201.945 412.667C309.113 397.852 295.72 412.667 380.564 348.667C465.408 284.667 705.428 75.1667 716.592 220.667C727.756 366.167 961.077 666.667 1052.06 380.667C1143.05 94.6667 1440 94.6667 1440 94.6667" stroke="url(#paint8_linear_29_4)" stroke-width="3"/>
<path d="M3.789 590.905C-17.9802 524.405 54.8422 449.642 201.945 425.905C309.113 411.09 295.72 425.905 380.564 361.905C465.408 297.905 705.428 88.4048 716.592 233.905C727.756 379.405 961.077 679.905 1052.06 393.905C1143.05 107.905 1440 107.905 1440 107.905" stroke="url(#paint9_linear_29_4)" stroke-width="3"/>
<path d="M3.789 604.143C-17.9802 537.643 54.8422 462.88 201.945 439.143C309.113 424.328 295.72 439.143 380.564 375.143C465.408 311.143 705.428 101.643 716.592 247.143C727.756 392.643 961.077 693.143 1052.06 407.143C1143.05 121.143 1440 121.143 1440 121.143" stroke="url(#paint10_linear_29_4)" stroke-width="3"/>
<path d="M3.789 617.381C-17.9802 550.881 54.8422 476.118 201.945 452.381C309.113 437.566 295.72 452.381 380.564 388.381C465.408 324.381 705.428 114.881 716.592 260.381C727.756 405.881 961.077 706.381 1052.06 420.381C1143.05 134.381 1440 134.381 1440 134.381" stroke="url(#paint11_linear_29_4)" stroke-width="3"/>
<path d="M3.789 630.619C-17.9802 564.119 54.8422 489.357 201.945 465.619C309.113 450.804 295.72 465.619 380.564 401.619C465.408 337.619 705.428 128.119 716.592 273.619C727.756 419.119 961.077 719.619 1052.06 433.619C1143.05 147.619 1440 147.619 1440 147.619" stroke="url(#paint12_linear_29_4)" stroke-width="3"/>
<path d="M3.789 643.857C-17.9802 577.357 54.8422 502.595 201.945 478.857C309.113 464.042 295.72 478.857 380.564 414.857C465.408 350.857 705.428 141.357 716.592 286.857C727.756 432.357 961.077 732.857 1052.06 446.857C1143.05 160.857 1440 160.857 1440 160.857" stroke="url(#paint13_linear_29_4)" stroke-width="3"/>
<path d="M3.789 657.095C-17.9802 590.595 54.8422 515.833 201.945 492.095C309.113 477.28 295.72 492.095 380.564 428.095C465.408 364.095 705.428 154.595 716.592 300.095C727.756 445.595 961.077 746.095 1052.06 460.095C1143.05 174.095 1440 174.095 1440 174.095" stroke="url(#paint14_linear_29_4)" stroke-width="3"/>
<path d="M3.789 670.333C-17.9802 603.833 54.8422 529.071 201.945 505.333C309.113 490.518 295.72 505.333 380.564 441.333C465.408 377.333 705.428 167.833 716.592 313.333C727.756 458.833 961.077 759.333 1052.06 473.333C1143.05 187.333 1440 187.333 1440 187.333" stroke="url(#paint15_linear_29_4)" stroke-width="3"/>
<path d="M3.789 683.571C-17.9802 617.071 54.8422 542.309 201.945 518.571C309.113 503.757 295.72 518.571 380.564 454.571C465.408 390.571 705.428 181.071 716.592 326.571C727.756 472.071 961.077 772.571 1052.06 486.571C1143.05 200.571 1440 200.571 1440 200.571" stroke="url(#paint16_linear_29_4)" stroke-width="3"/>
<path d="M3.789 696.81C-17.9802 630.31 54.8422 555.547 201.945 531.81C309.113 516.995 295.72 531.81 380.564 467.81C465.408 403.81 705.428 194.31 716.592 339.81C727.756 485.31 961.077 785.81 1052.06 499.81C1143.05 213.81 1440 213.81 1440 213.81" stroke="url(#paint17_linear_29_4)" stroke-width="3"/>
<path d="M3.789 710.048C-17.9802 643.548 54.8422 568.785 201.945 545.048C309.113 530.233 295.72 545.048 380.564 481.048C465.408 417.048 705.428 207.548 716.592 353.048C727.756 498.548 961.077 799.048 1052.06 513.048C1143.05 227.048 1440 227.048 1440 227.048" stroke="url(#paint18_linear_29_4)" stroke-width="3"/>
<path d="M3.789 723.286C-17.9802 656.786 54.8422 582.023 201.945 558.286C309.113 543.471 295.72 558.286 380.564 494.286C465.408 430.286 705.428 220.786 716.592 366.286C727.756 511.786 961.077 812.286 1052.06 526.286C1143.05 240.286 1440 240.286 1440 240.286" stroke="url(#paint19_linear_29_4)" stroke-width="3"/>
<path d="M3.789 736.524C-17.9802 670.024 54.8422 595.261 201.945 571.524C309.113 556.709 295.72 571.524 380.564 507.524C465.408 443.524 705.428 234.024 716.592 379.524C727.756 525.024 961.077 825.524 1052.06 539.524C1143.05 253.524 1440 253.524 1440 253.524" stroke="url(#paint20_linear_29_4)" stroke-width="3"/>
<path d="M3.789 749.762C-17.9802 683.262 54.8422 608.499 201.945 584.762C309.113 569.947 295.72 584.762 380.564 520.762C465.408 456.762 705.428 247.262 716.592 392.762C727.756 538.262 961.077 838.762 1052.06 552.762C1143.05 266.762 1440 266.762 1440 266.762" stroke="url(#paint21_linear_29_4)" stroke-width="3"/>
<defs>
<linearGradient id="paint0_linear_29_4" x1="720" y1="2" x2="720" y2="485" gradientUnits="userSpaceOnUse">
<stop stop-color="#501C58" stop-opacity="0.88"/>
<stop offset="1" stop-color="#6C127B" stop-opacity="0"/>
</linearGradient>
<linearGradient id="paint1_linear_29_4" x1="720" y1="280" x2="720" y2="763" gradientUnits="userSpaceOnUse">
<stop stop-color="#501C58" stop-opacity="0.88"/>
<stop offset="1" stop-color="#6C127B" stop-opacity="0"/>
</linearGradient>
<linearGradient id="paint2_linear_29_4" x1="720" y1="15.2381" x2="720" y2="498.238" gradientUnits="userSpaceOnUse">
<stop stop-color="#501C58" stop-opacity="0.88"/>
<stop offset="1" stop-color="#6C127B" stop-opacity="0"/>
</linearGradient>
<linearGradient id="paint3_linear_29_4" x1="720" y1="28.4762" x2="720" y2="511.476" gradientUnits="userSpaceOnUse">
<stop stop-color="#501C58" stop-opacity="0.88"/>
<stop offset="1" stop-color="#6C127B" stop-opacity="0"/>
</linearGradient>
<linearGradient id="paint4_linear_29_4" x1="720" y1="41.7143" x2="720" y2="524.714" gradientUnits="userSpaceOnUse">
<stop stop-color="#501C58" stop-opacity="0.88"/>
<stop offset="1" stop-color="#6C127B" stop-opacity="0"/>
</linearGradient>
<linearGradient id="paint5_linear_29_4" x1="720" y1="54.9524" x2="720" y2="537.952" gradientUnits="userSpaceOnUse">
<stop stop-color="#501C58" stop-opacity="0.88"/>
<stop offset="1" stop-color="#6C127B" stop-opacity="0"/>
</linearGradient>
<linearGradient id="paint6_linear_29_4" x1="720" y1="68.1905" x2="720" y2="551.19" gradientUnits="userSpaceOnUse">
<stop stop-color="#501C58" stop-opacity="0.88"/>
<stop offset="1" stop-color="#6C127B" stop-opacity="0"/>
</linearGradient>
<linearGradient id="paint7_linear_29_4" x1="720" y1="81.4286" x2="720" y2="564.429" gradientUnits="userSpaceOnUse">
<stop stop-color="#501C58" stop-opacity="0.88"/>
<stop offset="1" stop-color="#6C127B" stop-opacity="0"/>
</linearGradient>
<linearGradient id="paint8_linear_29_4" x1="720" y1="94.6667" x2="720" y2="577.667" gradientUnits="userSpaceOnUse">
<stop stop-color="#501C58" stop-opacity="0.88"/>
<stop offset="1" stop-color="#6C127B" stop-opacity="0"/>
</linearGradient>
<linearGradient id="paint9_linear_29_4" x1="720" y1="107.905" x2="720" y2="590.905" gradientUnits="userSpaceOnUse">
<stop stop-color="#501C58" stop-opacity="0.88"/>
<stop offset="1" stop-color="#6C127B" stop-opacity="0"/>
</linearGradient>
<linearGradient id="paint10_linear_29_4" x1="720" y1="121.143" x2="720" y2="604.143" gradientUnits="userSpaceOnUse">
<stop stop-color="#501C58" stop-opacity="0.88"/>
<stop offset="1" stop-color="#6C127B" stop-opacity="0"/>
</linearGradient>
<linearGradient id="paint11_linear_29_4" x1="720" y1="134.381" x2="720" y2="617.381" gradientUnits="userSpaceOnUse">
<stop stop-color="#501C58" stop-opacity="0.88"/>
<stop offset="1" stop-color="#6C127B" stop-opacity="0"/>
</linearGradient>
<linearGradient id="paint12_linear_29_4" x1="720" y1="147.619" x2="720" y2="630.619" gradientUnits="userSpaceOnUse">
<stop stop-color="#501C58" stop-opacity="0.88"/>
<stop offset="1" stop-color="#6C127B" stop-opacity="0"/>
</linearGradient>
<linearGradient id="paint13_linear_29_4" x1="720" y1="160.857" x2="720" y2="643.857" gradientUnits="userSpaceOnUse">
<stop stop-color="#501C58" stop-opacity="0.88"/>
<stop offset="1" stop-color="#6C127B" stop-opacity="0"/>
</linearGradient>
<linearGradient id="paint14_linear_29_4" x1="720" y1="174.095" x2="720" y2="657.095" gradientUnits="userSpaceOnUse">
<stop stop-color="#501C58" stop-opacity="0.88"/>
<stop offset="1" stop-color="#6C127B" stop-opacity="0"/>
</linearGradient>
<linearGradient id="paint15_linear_29_4" x1="720" y1="187.333" x2="720" y2="670.333" gradientUnits="userSpaceOnUse">
<stop stop-color="#501C58" stop-opacity="0.88"/>
<stop offset="1" stop-color="#6C127B" stop-opacity="0"/>
</linearGradient>
<linearGradient id="paint16_linear_29_4" x1="720" y1="200.571" x2="720" y2="683.571" gradientUnits="userSpaceOnUse">
<stop stop-color="#501C58" stop-opacity="0.88"/>
<stop offset="1" stop-color="#6C127B" stop-opacity="0"/>
</linearGradient>
<linearGradient id="paint17_linear_29_4" x1="720" y1="213.81" x2="720" y2="696.81" gradientUnits="userSpaceOnUse">
<stop stop-color="#501C58" stop-opacity="0.88"/>
<stop offset="1" stop-color="#6C127B" stop-opacity="0"/>
</linearGradient>
<linearGradient id="paint18_linear_29_4" x1="720" y1="227.048" x2="720" y2="710.048" gradientUnits="userSpaceOnUse">
<stop stop-color="#501C58" stop-opacity="0.88"/>
<stop offset="1" stop-color="#6C127B" stop-opacity="0"/>
</linearGradient>
<linearGradient id="paint19_linear_29_4" x1="720" y1="240.286" x2="720" y2="723.286" gradientUnits="userSpaceOnUse">
<stop stop-color="#501C58" stop-opacity="0.88"/>
<stop offset="1" stop-color="#6C127B" stop-opacity="0"/>
</linearGradient>
<linearGradient id="paint20_linear_29_4" x1="720" y1="253.524" x2="720" y2="736.524" gradientUnits="userSpaceOnUse">
<stop stop-color="#501C58" stop-opacity="0.88"/>
<stop offset="1" stop-color="#6C127B" stop-opacity="0"/>
</linearGradient>
<linearGradient id="paint21_linear_29_4" x1="720" y1="266.762" x2="720" y2="749.762" gradientUnits="userSpaceOnUse">
<stop stop-color="#501C58" stop-opacity="0.88"/>
<stop offset="1" stop-color="#6C127B" stop-opacity="0"/>
</linearGradient>
</defs>
</svg>
